<svg xmlns="http://www.w3.org/2000/svg" viewBox="0 0 96 96">
  <title>布上衣</title>
  <path
    d="M36 12Q26 15 19 24 13 34 12 48 12 55 18 56L26 58V82Q26 88 32 88H64Q70 88 70 82V58L78 56Q84 55 84 48 83 34 77 24 70 15 60 12 48 22 36 12Z"
    fill="#74836d"
  />
  <path d="M39 13Q48 20 57 13L48 27Z" fill="#0a1215" />
  <path d="M27 30l-1 26M69 30l1 26" stroke="#0a1215" stroke-width="3" stroke-linecap="round" />
  <path d="M30 80h36" stroke="#0a1215" stroke-width="3" stroke-linecap="round" />
  <rect x="53" y="45" width="14" height="14" rx="4" fill="#9fbd83" />
  <path d="M53 45l-3-3M67 59l3 3" stroke="#0a1215" stroke-width="3" stroke-linecap="round" />
</svg>
